<?xml version="1.0" encoding="utf-8"?>
<!-- Generator: Adobe Illustrator 18.0.0, SVG Export Plug-In . SVG Version: 6.00 Build 0)  -->
<!DOCTYPE svg PUBLIC "-//W3C//DTD SVG 1.1//EN" "http://www.w3.org/Graphics/SVG/1.1/DTD/svg11.dtd">
<svg version="1.1" id="Icon_Set" xmlns="http://www.w3.org/2000/svg" xmlns:xlink="http://www.w3.org/1999/xlink" x="0px" y="0px"
	 viewBox="0 0 512 512" style="enable-background:new 0 0 512 512;" xml:space="preserve">
<style type="text/css">
	.st0{fill:#4C4372;}
	.st1{fill:#F0C48A;}
	.st2{fill:#FD919E;}
	.st3{fill:#E8677D;}
	.st4{fill:#D3E6F8;}
	.st5{fill:#A4CFF2;}
	.st6{fill:#7BABF1;}
	.st7{fill:#FFFFFF;}
</style>
<g>
	<g>
		<g>
			<g>
				<circle class="st1" cx="256" cy="256" r="207"/>
			</g>
		</g>
	</g>
	<g>
		<g>
			<g>
				<g>
					<path class="st7" d="M475.007,94.393H36.993c-17.193,0-31.13,13.938-31.13,31.131v157.244c0,17.193,13.938,31.131,31.13,31.131
						h438.014c17.192,0,31.13-13.938,31.13-31.131V125.523C506.137,108.33,492.199,94.393,475.007,94.393z"/>
				</g>
			</g>
		</g>
		<g>
			<g>
				<g>
					<path class="st4" d="M475.007,94.393h-30.527v219.506h30.527c17.192,0,31.13-13.938,31.13-31.13V125.523
						C506.137,108.331,492.199,94.393,475.007,94.393z"/>
				</g>
			</g>
		</g>
		<g>
			<g>
				<circle class="st4" cx="373.923" cy="126.225" r="13.596"/>
			</g>
		</g>
		<g>
			<g>
				<circle class="st5" cx="418.096" cy="126.225" r="13.596"/>
			</g>
		</g>
		<g>
			<g>
				<circle class="st2" cx="462.269" cy="126.225" r="13.597"/>
			</g>
		</g>
		<g>
			<g>
				<rect x="87.5" y="244.953" class="st5" width="337" height="68.945"/>
			</g>
		</g>
		<g>
			<g>
				<rect x="367.841" y="244.953" class="st6" width="56.659" height="68.945"/>
			</g>
		</g>
		<g>
			<g>
				<g>
					<path class="st0" d="M475.007,319.761H36.993C16.595,319.761,0,303.166,0,282.769V125.522C0,105.125,16.595,88.53,36.993,88.53
						h438.014c20.398,0,36.993,16.595,36.993,36.992v157.246C512,303.166,495.405,319.761,475.007,319.761z M36.993,100.256
						c-13.933,0-25.268,11.335-25.268,25.267v157.246c0,13.932,11.335,25.267,25.268,25.267h438.014
						c13.933,0,25.268-11.335,25.268-25.267V125.522c0-13.932-11.335-25.267-25.268-25.267H36.993z"/>
				</g>
			</g>
		</g>
		<g>
			<g>
				<path class="st0" d="M506.137,163.157H5.862c-3.237,0-5.862-2.625-5.862-5.862c0-3.237,2.625-5.862,5.862-5.862h500.274
					c3.238,0,5.863,2.625,5.863,5.862C512,160.532,509.375,163.157,506.137,163.157z"/>
			</g>
		</g>
		<g>
			<g>
				<path class="st0" d="M424.5,319.761h-337c-3.238,0-5.863-2.625-5.863-5.863v-68.944c0-3.237,2.625-5.862,5.863-5.862h337
					c3.238,0,5.862,2.625,5.862,5.862v68.944C430.362,317.136,427.738,319.761,424.5,319.761z M93.362,308.035h325.274v-57.22
					H93.362V308.035z"/>
			</g>
		</g>
		<g>
			<g>
				<path class="st0" d="M424.5,285.288h-337c-3.238,0-5.863-2.625-5.863-5.862c0-3.237,2.625-5.862,5.863-5.862h337
					c3.238,0,5.862,2.625,5.862,5.862C430.362,282.663,427.738,285.288,424.5,285.288z"/>
			</g>
		</g>
		<g>
			<g>
				<path class="st0" d="M373.924,145.684c-10.729,0-19.459-8.729-19.459-19.459c0-10.73,8.729-19.459,19.459-19.459
					s19.459,8.729,19.459,19.459C393.383,136.954,384.653,145.684,373.924,145.684z M373.924,118.49
					c-4.265,0-7.733,3.47-7.733,7.734c0,4.264,3.469,7.733,7.733,7.733c4.264,0,7.733-3.47,7.733-7.733
					C381.657,121.96,378.188,118.49,373.924,118.49z"/>
			</g>
		</g>
		<g>
			<g>
				<path class="st0" d="M418.097,145.684c-10.73,0-19.46-8.729-19.46-19.459c0-10.73,8.73-19.459,19.46-19.459
					c10.729,0,19.458,8.729,19.458,19.459C437.555,136.954,428.826,145.684,418.097,145.684z M418.097,118.49
					c-4.265,0-7.734,3.47-7.734,7.734c0,4.264,3.47,7.733,7.734,7.733c4.264,0,7.733-3.47,7.733-7.733
					C425.83,121.96,422.36,118.49,418.097,118.49z"/>
			</g>
		</g>
		<g>
			<g>
				<path class="st0" d="M462.269,145.684c-10.729,0-19.459-8.729-19.459-19.459c0-10.73,8.729-19.459,19.459-19.459
					c10.729,0,19.459,8.729,19.459,19.459C481.728,136.954,472.998,145.684,462.269,145.684z M462.269,118.49
					c-4.265,0-7.733,3.47-7.733,7.734c0,4.264,3.469,7.733,7.733,7.733c4.265,0,7.733-3.47,7.733-7.733
					C470.002,121.96,466.533,118.49,462.269,118.49z"/>
			</g>
		</g>
		<g>
			<g>
				<path class="st0" d="M119.44,423.47c-0.896,0-1.804-0.205-2.657-0.641c-2.884-1.471-4.031-5.001-2.561-7.886l9.312-18.27
					c1.29-2.531,1.517-5.413,0.639-8.115c-0.878-2.702-2.755-4.901-5.286-6.191c-5.322-2.712-9.269-7.334-11.114-13.015
					c-1.845-5.682-1.367-11.741,1.345-17.063l8.562-16.801c1.47-2.885,4.998-4.034,7.885-2.561c2.885,1.47,4.032,5,2.562,7.886
					l-8.563,16.8c-1.29,2.531-1.517,5.413-0.639,8.115c0.878,2.703,2.755,4.901,5.287,6.191c5.321,2.712,9.269,7.334,11.114,13.016
					c1.845,5.681,1.368,11.74-1.344,17.062l-9.312,18.271C123.633,422.3,121.575,423.47,119.44,423.47z"/>
			</g>
		</g>
		<g>
			<g>
				<path class="st0" d="M187.951,423.47c-0.896,0-1.805-0.205-2.657-0.641c-2.885-1.471-4.032-5-2.562-7.886l9.311-18.27
					c1.29-2.531,1.517-5.413,0.639-8.115c-0.877-2.702-2.755-4.901-5.287-6.191c-5.321-2.712-9.269-7.334-11.114-13.015
					c-1.845-5.682-1.368-11.741,1.344-17.063l8.563-16.801c1.469-2.885,4.999-4.034,7.885-2.561c2.884,1.47,4.032,5,2.561,7.886
					l-8.561,16.8c-1.29,2.531-1.518,5.413-0.64,8.115c0.878,2.703,2.755,4.901,5.286,6.191c5.322,2.712,9.27,7.334,11.114,13.016
					c1.845,5.681,1.368,11.74-1.345,17.062l-9.311,18.271C192.144,422.3,190.086,423.47,187.951,423.47z"/>
			</g>
		</g>
		<g>
			<g>
				<path class="st0" d="M256.461,423.47c-0.896,0-1.804-0.205-2.657-0.641c-2.885-1.471-4.032-5-2.561-7.886l9.311-18.27
					c1.29-2.531,1.518-5.413,0.64-8.115c-0.878-2.702-2.755-4.901-5.286-6.191c-5.322-2.712-9.269-7.334-11.114-13.015
					c-1.845-5.682-1.368-11.741,1.344-17.063l8.562-16.801c1.469-2.885,4.999-4.034,7.886-2.561c2.885,1.47,4.031,5,2.562,7.886
					l-8.563,16.8c-1.29,2.531-1.517,5.413-0.64,8.115c0.878,2.703,2.755,4.901,5.286,6.191c5.322,2.712,9.27,7.334,11.115,13.016
					c1.845,5.681,1.367,11.74-1.346,17.062l-9.31,18.271C260.654,422.3,258.596,423.47,256.461,423.47z"/>
			</g>
		</g>
		<g>
			<g>
				<path class="st0" d="M324.971,423.47c-0.895,0-1.804-0.205-2.657-0.641c-2.884-1.471-4.031-5.001-2.561-7.886l9.312-18.27
					c1.29-2.531,1.517-5.413,0.639-8.115c-0.877-2.702-2.755-4.901-5.286-6.191c-5.322-2.712-9.269-7.334-11.114-13.015
					c-1.845-5.682-1.367-11.741,1.345-17.063l8.563-16.801c1.47-2.885,4.997-4.034,7.885-2.561c2.886,1.47,4.032,5.001,2.562,7.886
					l-8.563,16.8c-1.29,2.531-1.517,5.413-0.639,8.115c0.877,2.703,2.755,4.901,5.285,6.191c5.322,2.712,9.27,7.334,11.115,13.016
					c1.845,5.681,1.367,11.74-1.345,17.062l-9.312,18.271C329.164,422.3,327.105,423.47,324.971,423.47z"/>
			</g>
		</g>
		<g>
			<g>
				<path class="st0" d="M393.481,423.47c-0.896,0-1.805-0.205-2.657-0.641c-2.885-1.471-4.032-5.001-2.561-7.886l9.311-18.27
					c1.29-2.531,1.518-5.413,0.64-8.115c-0.878-2.702-2.756-4.901-5.286-6.191c-5.322-2.712-9.27-7.334-11.114-13.015
					c-1.846-5.682-1.368-11.741,1.345-17.063l8.561-16.801c1.47-2.885,4.999-4.034,7.886-2.561c2.885,1.47,4.031,5,2.56,7.886
					l-8.561,16.8c-1.29,2.531-1.518,5.413-0.64,8.115c0.878,2.703,2.755,4.901,5.286,6.191c5.321,2.712,9.268,7.334,11.114,13.016
					c1.845,5.681,1.368,11.74-1.345,17.062l-9.311,18.271C397.674,422.3,395.615,423.47,393.481,423.47z"/>
			</g>
		</g>
	</g>
</g>
</svg>
