<?xml version="1.0" encoding="UTF-8"?>
<!DOCTYPE svg PUBLIC "-//W3C//DTD SVG 1.1//EN" "http://www.w3.org/Graphics/SVG/1.1/DTD/svg11.dtd">
<!-- Creator: CorelDRAW -->
<svg xmlns="http://www.w3.org/2000/svg" xml:space="preserve" width="2048px" height="2048px" style="shape-rendering:geometricPrecision; text-rendering:geometricPrecision; image-rendering:optimizeQuality; fill-rule:evenodd; clip-rule:evenodd"
viewBox="0 0 2048 2048"
 xmlns:xlink="http://www.w3.org/1999/xlink">
 <defs>
  <style type="text/css">
   <![CDATA[
    .fil2 {fill:none}
    .fil1 {fill:#43A047}
    .fil0 {fill:#66BB6A}
    .fil8 {fill:#F44336}
    .fil9 {fill:#FFA726}
    .fil7 {fill:#FFD180}
    .fil4 {fill:#3E2723;fill-rule:nonzero}
    .fil5 {fill:#4E342E;fill-rule:nonzero}
    .fil6 {fill:#6D4C41;fill-rule:nonzero}
    .fil3 {fill:#F44336;fill-rule:nonzero}
   ]]>
  </style>
   <clipPath id="id0">
    <path d="M1024 -0.0011811c565.539,0 1024,458.462 1024,1024 0,565.539 -458.462,1024 -1024,1024 -565.539,0 -1024,-458.462 -1024,-1024 0,-565.539 458.462,-1024 1024,-1024z"/>
   </clipPath>
 </defs>
 <g id="Layer_x0020_1">
  <metadata id="CorelCorpID_0Corel-Layer"/>
  <path class="fil0" d="M1024 -0.0011811c565.539,0 1024,458.462 1024,1024 0,565.539 -458.462,1024 -1024,1024 -565.539,0 -1024,-458.462 -1024,-1024 0,-565.539 458.462,-1024 1024,-1024z"/>
  <g style="clip-path:url(#id0)">
   <g id="_451272416">
    <g>
     <polygon id="_3325991761" class="fil1" points="1584,747.379 2719.88,1883.26 2719.88,1895.65 1584,759.766 "/>
     <polygon id="_332599416" class="fil1" points="1584,759.766 2719.88,1895.65 2719.83,1897.25 2719.67,1898.83 2719.4,1900.38 2719.04,1901.88 2718.58,1903.35 2718.03,1904.77 2717.39,1906.15 2716.66,1907.48 2715.86,1908.75 2714.97,1909.97 2714.01,1911.12 2712.98,1912.21 2711.88,1913.24 2710.72,1914.19 2709.49,1915.06 2708.21,1915.86 1572.33,779.978 1573.61,779.181 1574.84,778.306 1576,777.355 1577.1,776.332 1578.13,775.242 1579.09,774.087 1579.97,772.871 1580.78,771.597 1581.51,770.271 1582.15,768.892 1582.7,767.468 1583.16,766 1583.52,764.493 1583.79,762.949 1583.95,761.372 "/>
     <polygon id="_332599704" class="fil1" points="1572.33,779.978 2708.21,1915.86 2708.21,1929.93 1572.33,794.045 "/>
     <polygon id="_332600256" class="fil1" points="1572.33,794.045 2708.21,1929.93 2708.21,1930.3 2708.19,1930.68 2708.16,1931.05 2708.12,1931.41 2708.07,1931.77 2708.01,1932.13 2707.93,1932.49 2707.85,1932.84 1571.97,796.959 1572.05,796.607 1572.12,796.251 1572.19,795.892 1572.24,795.53 1572.28,795.164 1572.31,794.794 1572.33,794.421 "/>
     <polygon id="_332599584" class="fil1" points="1549,779.978 2684.88,1915.86 2683.6,1915.06 2682.38,1914.19 2681.21,1913.24 2680.11,1912.21 2679.08,1911.12 1543.2,775.242 1544.23,776.332 1545.33,777.355 1546.5,778.306 1547.72,779.181 "/>
     <polygon id="_332599800" class="fil1" points="1505.6,965.02 2641.48,2100.9 2643.17,2102.86 2644.77,2104.89 2646.3,2107 2647.73,2109.17 2649.08,2111.41 2650.34,2113.71 2651.5,2116.07 2652.56,2118.48 2653.53,2120.94 2654.39,2123.44 2655.14,2125.99 2655.79,2128.57 2656.33,2131.19 2656.75,2133.84 2657.06,2136.51 1521.17,1000.63 1520.87,997.953 1520.45,995.306 1519.91,992.689 1519.26,990.106 1518.51,987.559 1517.65,985.054 1516.68,982.595 1515.62,980.186 1514.46,977.828 1513.2,975.529 1511.85,973.289 1510.41,971.116 1508.89,969.01 1507.29,966.978 "/>
     <polygon id="_332599944" class="fil1" points="1521.17,1000.63 2657.06,2136.51 2657.14,2137.39 2657.2,2138.22 2657.26,2138.99 2657.31,2139.7 2657.35,2140.36 2657.37,2140.96 2657.39,2141.5 2657.39,2141.98 1521.51,1006.1 1521.51,1005.61 1521.49,1005.08 1521.46,1004.48 1521.43,1003.82 1521.38,1003.11 1521.32,1002.34 1521.25,1001.51 "/>
     <polygon id="_332599656" class="fil1" points="475.668,966.644 1611.55,2102.53 1610.27,2101.73 1609.05,2100.85 1607.88,2099.9 472.002,964.021 473.164,964.972 474.388,965.847 "/>
     <polygon id="_332599680" class="fil1" points="503.834,917.546 1639.72,2053.43 1641.22,2055.09 1642.57,2056.88 1643.73,2058.81 1644.72,2060.85 1645.5,2062.99 1646.08,2065.23 1646.43,2067.54 1646.55,2069.93 510.669,934.046 510.548,931.66 510.195,929.343 509.62,927.107 508.835,924.963 507.852,922.924 506.684,921 505.34,919.203 "/>
     <polygon id="_332599752" class="fil1" points="510.669,934.046 1646.55,2069.93 1646.55,2082.31 510.669,946.432 "/>
     <polygon id="_332600088" class="fil1" points="510.669,946.432 1646.55,2082.31 1646.5,2083.92 1646.34,2085.5 1646.07,2087.04 1645.71,2088.55 1645.25,2090.02 1644.7,2091.44 1644.06,2092.82 1643.33,2094.15 1642.52,2095.42 1641.64,2096.64 1640.68,2097.79 1639.65,2098.88 1638.55,2099.9 1637.39,2100.85 1636.16,2101.73 1634.88,2102.53 499.002,966.644 500.282,965.847 501.506,964.972 502.668,964.021 503.768,962.998 504.799,961.908 505.758,960.753 506.644,959.538 507.45,958.263 508.177,956.937 508.817,955.559 509.367,954.134 509.827,952.666 510.189,951.159 510.454,949.615 510.615,948.039 "/>
     <polygon id="_332600160" class="fil1" points="510.669,1237.38 1646.55,2373.26 1646.55,2436.5 510.669,1300.62 "/>
     <polygon id="_332600184" class="fil1" points="510.669,1300.62 1646.55,2436.5 1646.43,2438.89 1646.08,2441.21 1645.5,2443.44 1644.72,2445.59 1643.73,2447.63 1642.57,2449.55 1641.22,2451.35 1639.72,2453 1638.06,2454.51 1636.26,2455.85 1634.34,2457.02 1632.3,2458 1630.15,2458.79 1627.92,2459.36 1625.6,2459.72 1623.22,2459.84 487.335,1323.95 489.721,1323.83 492.037,1323.48 494.273,1322.91 496.418,1322.12 498.456,1321.14 500.38,1319.97 502.177,1318.63 503.834,1317.12 505.34,1315.46 506.684,1313.67 507.852,1311.74 508.835,1309.7 509.62,1307.56 510.195,1305.32 510.548,1303.01 "/>
     <polygon id="_332600760" class="fil1" points="487.335,1323.95 1623.22,2459.84 1620.83,2459.72 1618.51,2459.36 1616.28,2458.79 1614.13,2458 1612.09,2457.02 1610.17,2455.85 1608.37,2454.51 472.492,1318.63 474.289,1319.97 476.213,1321.14 478.252,1322.12 480.396,1322.91 482.632,1323.48 484.949,1323.83 "/>
     <polygon id="_332600376" class="fil1" points="499.002,966.644 1634.88,2102.53 1634.88,2116.59 499.002,980.713 "/>
     <polygon id="_332600496" class="fil1" points="499.002,980.713 1634.88,2116.59 1634.88,2116.97 1634.86,2117.34 1634.83,2117.71 1634.79,2118.08 1634.74,2118.44 1634.67,2118.8 1634.6,2119.16 1634.52,2119.51 498.635,983.626 498.72,983.274 498.793,982.919 498.857,982.56 498.909,982.197 498.949,981.831 498.978,981.461 498.996,981.088 "/>
     <polygon id="_332601000" class="fil1" points="503.542,987.259 1639.42,2123.14 1640.49,2124.24 1641.48,2125.4 1642.39,2126.63 1643.22,2127.92 1643.97,2129.26 1644.63,2130.65 1645.2,2132.1 1645.68,2133.59 1646.05,2135.12 1646.33,2136.69 1646.49,2138.29 1646.55,2139.93 510.669,1004.05 510.612,1002.41 510.446,1000.81 510.173,999.239 509.797,997.707 509.324,996.218 508.753,994.772 508.092,993.376 507.343,992.033 506.51,990.746 505.596,989.519 504.606,988.355 "/>
     <polygon id="_332600688" class="fil1" points="510.669,1004.05 1646.55,2139.93 1646.55,2163.26 510.669,1027.38 "/>
     <polygon id="_332600352" class="fil1" points="964.996,1018.2 2100.88,2154.09 2100.88,2163.26 964.996,1027.38 "/>
     <polygon id="_332600616" class="fil1" points="1537.33,1237.38 2673.21,2373.26 1646.55,2373.26 510.669,1237.38 "/>
     <polygon id="_332601024" class="fil1" points="1584,1300.62 2719.88,2436.5 2719.76,2438.89 2719.41,2441.21 2718.83,2443.44 2718.05,2445.59 2717.07,2447.63 2715.9,2449.55 2714.55,2451.35 2713.05,2453 2711.39,2454.51 2709.59,2455.85 2707.67,2457.02 2705.63,2458 2703.49,2458.79 2701.25,2459.36 2698.93,2459.72 2696.55,2459.84 1560.67,1323.95 1563.05,1323.83 1565.37,1323.48 1567.61,1322.91 1569.75,1322.12 1571.79,1321.14 1573.71,1319.97 1575.51,1318.63 1577.17,1317.12 1578.67,1315.46 1580.01,1313.67 1581.18,1311.74 1582.17,1309.7 1582.95,1307.56 1583.53,1305.32 1583.88,1303.01 "/>
     <polygon id="_332600280" class="fil1" points="1560.67,1323.95 2696.55,2459.84 2694.16,2459.72 2691.85,2459.36 2689.61,2458.79 2687.46,2458 2685.43,2457.02 2683.5,2455.85 2681.71,2454.51 2680.05,2453 1544.17,1317.12 1545.82,1318.63 1547.62,1319.97 1549.54,1321.14 1551.58,1322.12 1553.73,1322.91 1555.96,1323.48 1558.28,1323.83 "/>
     <polygon id="_332600448" class="fil1" points="1584,1214.05 2719.88,2349.93 2719.88,2436.5 1584,1300.62 "/>
     <polygon id="_332601720" class="fil1" points="1584,817.379 2719.88,1953.26 2719.88,2186.6 1584,1050.71 "/>
     <polygon id="_332601048" class="fil1" points="1521.51,1006.1 2657.39,2141.98 2657.39,2163.26 1521.51,1027.38 "/>
     <polygon id="_332601600" class="fil1" points="1584,1050.71 2719.88,2186.6 2719.88,2349.93 1584,1214.05 "/>
     <polygon id="_332601144" class="fil1" points="1577.94,801.688 2713.82,1937.57 2714.81,1938.73 2715.72,1939.96 2716.56,1941.25 2717.3,1942.59 2717.97,1943.99 2718.54,1945.43 2719.01,1946.92 2719.39,1948.45 2719.66,1950.02 2719.82,1951.63 2719.88,1953.26 1584,817.379 1583.94,815.746 1583.78,814.142 1583.5,812.572 1583.13,811.041 1582.65,809.551 1582.08,808.105 1581.42,806.709 1580.67,805.366 1579.84,804.079 1578.93,802.851 "/>
     <polygon id="_332601408" class="fil1" points="1578.67,732.537 2714.55,1868.42 2715.9,1870.22 2717.07,1872.14 2718.05,1874.18 2718.83,1876.32 2719.41,1878.56 2719.76,1880.88 2719.88,1883.26 1584,747.379 1583.88,744.993 1583.53,742.677 1582.95,740.441 1582.17,738.296 1581.18,736.257 1580.01,734.333 "/>
    </g>
    <path id="_451272512" class="fil1" d="M1584 747.379l0 12.3874c0,8.63623 -4.69252,16.1776 -11.6669,20.2122l0 14.0669c0,1.0063 -0.127559,1.98189 -0.367323,2.91378 7.17638,3.97914 12.0343,11.6327 12.0343,20.4201l-0.0011811 233.334 0 163.332 0.0011811 86.5749c0,12.887 -10.4469,23.3339 -23.3339,23.3339 -12.8858,0 -23.3339,-10.4469 -23.3339,-23.3339l0 -63.241 -1026.66 0 0 63.241c0,12.887 -10.448,23.3339 -23.3339,23.3339 -12.887,0 -23.3339,-10.4469 -23.3339,-23.3339l0 -86.2394c-0.0011811,-0.112205 -0.00236221,-0.223229 -0.00236221,-0.335433l0 -163.332c0,-0.112205 0.0011811,-0.223229 0.00236221,-0.335433l0 -46.3323c0,-8.78623 4.85788,-16.4398 12.0331,-20.4201 -0.238583,-0.930709 -0.366142,-1.90748 -0.366142,-2.9126l0 -14.0681c-6.97441,-4.03465 -11.6669,-11.5748 -11.6669,-20.2122l0 -12.3862c0,-12.887 10.4469,-23.3339 23.3339,-23.3339 12.8858,0 23.3339,10.4469 23.3339,23.3339l0 12.3862c0,8.63623 -4.69252,16.1776 -11.6669,20.2122l0 14.0681c0,1.0063 -0.127559,1.98189 -0.367323,2.91378 7.17638,3.97914 12.0343,11.6327 12.0343,20.4189l0 23.3339 57.8422 0 0 -9.17481 301.816 0 13.448 0 14.0433 0 30.2587 0 36.9189 0 0 9.17481 316.431 0 0 -10.2083c0,-16.3665 6.53268,-30.5233 17.0835,-41.074 10.3984,-10.3996 23.7047,-11.3906 39.4725,-12.8398 45.8705,6.37205 117.085,-17.0811 126.512,-17.0811 15.3685,0 29.1437,6.59292 39.3402,16.9689 9.61536,9.78426 16.0264,23.1638 17.341,37.4811 0.223229,2.42953 0.337796,4.26733 0.337796,5.46969l0 21.2835 15.8197 0 0 -210c0,-8.78741 4.85788,-16.4398 12.0343,-20.4201 -0.239764,-0.930709 -0.367323,-1.90748 -0.367323,-2.91378l0 -14.0669c-6.97441,-4.03465 -11.6669,-11.576 -11.6669,-20.2122l0 -12.3874c0,-12.8858 10.448,-23.3339 23.3339,-23.3339 12.887,0 23.3339,10.448 23.3339,23.3339z"/>
   </g>
  </g>
  <path class="fil2" d="M1024 -0.0011811c565.539,0 1024,458.462 1024,1024 0,565.539 -458.462,1024 -1024,1024 -565.539,0 -1024,-458.462 -1024,-1024 0,-565.539 458.462,-1024 1024,-1024z"/>
  <path class="fil3" d="M1337.98 963.257c45.8705,6.37205 117.085,-17.0811 126.512,-17.0811 15.3685,0 29.1437,6.59292 39.3402,16.9689 9.61536,9.78426 16.0264,23.1638 17.341,37.4811 0.223229,2.42953 0.337796,4.26733 0.337796,5.46969l0 27.5268c0,12.8858 -10.4469,23.3339 -23.3339,23.3339l-193.419 0c-12.887,0 -23.3339,-10.448 -23.3339,-23.3339l0 -16.4516c0,-16.3665 6.53268,-30.5233 17.0835,-41.074 10.3984,-10.3996 23.7047,-11.3906 39.4725,-12.8398z"/>
  <path class="fil4" d="M1549 794.045c0,6.44292 5.22402,11.6669 11.6669,11.6669 6.44292,0 11.6669,-5.22402 11.6669,-11.6669l0 -23.3327c0,-6.44292 -5.22402,-11.6669 -11.6669,-11.6669 -6.44292,0 -11.6669,5.22402 -11.6669,11.6669l0 23.3327z"/>
  <path class="fil5" d="M1584 747.379c0,-12.8858 -10.4469,-23.3339 -23.3339,-23.3339 -12.8858,0 -23.3339,10.448 -23.3339,23.3339l0 12.3874c0,12.8858 10.448,23.3339 23.3339,23.3339 12.887,0 23.3339,-10.448 23.3339,-23.3339l0 -12.3874z"/>
  <path class="fil4" d="M475.668 980.713c0,6.44292 5.22402,11.6669 11.6669,11.6669 6.44292,0 11.6669,-5.22402 11.6669,-11.6669l0 -23.3327c0,-6.44292 -5.22402,-11.6669 -11.6669,-11.6669 -6.44292,0 -11.6669,5.22402 -11.6669,11.6669l0 23.3327z"/>
  <path class="fil5" d="M510.669 934.046c0,-12.887 -10.448,-23.3339 -23.3339,-23.3339 -12.887,0 -23.3339,10.4469 -23.3339,23.3339l0 12.3862c0,12.887 10.4469,23.3339 23.3339,23.3339 12.8858,0 23.3339,-10.4469 23.3339,-23.3339l0 -12.3862z"/>
  <path class="fil6" d="M487.333 1027.38l1073.33 0c12.887,0 23.3339,10.4469 23.3339,23.3339l0 163.332c0,12.887 -10.4469,23.3339 -23.3339,23.3339l-1073.33 0c-12.8858,0 -23.3339,-10.4469 -23.3339,-23.3339l0 -163.332c0,-12.887 10.448,-23.3339 23.3339,-23.3339z"/>
  <path class="fil5" d="M510.665 1109.05c-6.44174,0 -11.6669,5.22402 -11.6669,11.6669 0,6.44174 5.2252,11.6669 11.6669,11.6669l1026.67 0c6.44292,0 11.6669,-5.2252 11.6669,-11.6669 0,-6.44292 -5.22402,-11.6669 -11.6669,-11.6669l-1026.67 0z"/>
  <path class="fil5" d="M1584 817.379c0,-12.887 -10.4469,-23.3339 -23.3339,-23.3339 -12.8858,0 -23.3339,10.4469 -23.3339,23.3339l0 483.241c0,12.887 10.448,23.3339 23.3339,23.3339 12.887,0 23.3339,-10.4469 23.3339,-23.3339l0 -483.241z"/>
  <path class="fil5" d="M510.669 1004.05c0,-12.8858 -10.448,-23.3339 -23.3339,-23.3339 -12.887,0 -23.3339,10.448 -23.3339,23.3339l0 296.575c0,12.887 10.4469,23.3339 23.3339,23.3339 12.8858,0 23.3339,-10.4469 23.3339,-23.3339l0 -296.575z"/>
  <polygon class="fil7" points="1281.43,1027.38 510.669,1027.38 510.665,1109.05 1537.33,1109.05 1537.33,1027.38 1521.51,1027.38 "/>
  <path class="fil8" d="M568.511 1018.2l396.485 0 0 183.998c0,2.50866 -2.0504,4.56024 -4.55906,4.56024l-386.795 0c-2.82284,0 -5.13071,-2.30669 -5.13071,-5.12953l0 -183.429z"/>
  <polygon class="fil9" points="870.327,1018.2 883.776,1018.2 883.776,1206.76 870.327,1206.76 "/>
  <polygon class="fil9" points="897.818,1018.2 928.077,1018.2 928.077,1206.76 897.818,1206.76 "/>
 </g>
</svg>
