<svg xmlns="http://www.w3.org/2000/svg" width="37.504" height="48" viewBox="0 0 37.504 48">
  <g>
    <rect x="4.129" y="6.375" width="29.25" height="38.532" fill="#c6c6c6"/>
    <path d="M3,5.25V46.032H34.5V5.25Zm29.25,38.532h-27V7.5h27Z" fill="#7a8e9b"/>
    <polygon points="37.504 46.032 18.708 46.032 0 46.032 3.001 42.75 34.504 42.75 37.504 46.032" fill="#525c6b"/>
    <polygon points="24.128 2.829 24.128 45.171 26.378 44.647 26.378 3.355 24.128 2.829" fill="#e49a61"/>
    <polygon points="34.504 5.25 31.379 4.522 31.379 43.48 34.504 42.75 34.504 5.25" fill="#e49a61"/>
    <polygon points="12.004 0 12.004 48 22.379 45.579 22.379 2.421 12.004 0" fill="#e49a61"/>
    <polygon points="26.378 3.355 26.378 44.647 31.379 43.48 31.379 4.522 26.378 3.355" fill="#f1bb6b"/>
    <polygon points="22.379 2.421 22.379 45.579 24.128 45.171 24.128 2.829 22.379 2.421" fill="#f1bb6b"/>
    <ellipse cx="17.004" cy="25.157" rx="1.688" ry="2.25" fill="#525c6b"/>
    <ellipse cx="17.754" cy="25.157" rx="1.688" ry="2.25" fill="#c6c6c6"/>
  </g>
</svg>
