<svg xmlns="http://www.w3.org/2000/svg" width="48" height="45.744" viewBox="0 0 48 45.744">
  <g>
    <g>
      <path d="M23.965,40.107a1.463,1.463,0,0,1,.519-1.093.727.727,0,1,0-.965-1.087,2.861,2.861,0,0,0,0,4.36,1.41,1.41,0,0,1,0,2.186.726.726,0,1,0,.964,1.086,2.861,2.861,0,0,0,0-4.36A1.46,1.46,0,0,1,23.965,40.107Z" fill="#c6c6c6"/>
      <path d="M31.905,40.107a1.461,1.461,0,0,1,.52-1.093.727.727,0,1,0-.966-1.087,2.86,2.86,0,0,0,0,4.36,1.41,1.41,0,0,1,0,2.186.726.726,0,1,0,.965,1.086,2.861,2.861,0,0,0,0-4.36A1.458,1.458,0,0,1,31.905,40.107Z" fill="#c6c6c6"/>
      <path d="M40.365,41.2a1.409,1.409,0,0,1,0-2.186.727.727,0,1,0-.966-1.087,2.861,2.861,0,0,0,0,4.36,1.409,1.409,0,0,1,0,2.186.727.727,0,1,0,.966,1.086,2.86,2.86,0,0,0,0-4.359Z" fill="#c6c6c6"/>
      <path d="M16.024,40.107a1.457,1.457,0,0,1,.52-1.093.727.727,0,1,0-.966-1.087,2.861,2.861,0,0,0,0,4.36,1.409,1.409,0,0,1,0,2.186.727.727,0,1,0,.966,1.086,2.861,2.861,0,0,0,0-4.36A1.455,1.455,0,0,1,16.024,40.107Z" fill="#c6c6c6"/>
      <path d="M8.084,40.107A1.46,1.46,0,0,1,8.6,39.014a.727.727,0,1,0-.966-1.087,2.861,2.861,0,0,0,0,4.36,1.41,1.41,0,0,1,0,2.186A.726.726,0,1,0,8.6,45.559a2.861,2.861,0,0,0,0-4.36A1.46,1.46,0,0,1,8.084,40.107Z" fill="#c6c6c6"/>
    </g>
    <rect x="14.801" width="18.396" height="14.323" fill="#e49a61"/>
    <rect x="3.75" y="26.608" width="40.5" height="4.068" fill="#e49a61"/>
    <path d="M45,30.676H3a3,3,0,0,0-3,3v1.5H48v-1.5A3,3,0,0,0,45,30.676Z" fill="#f1bb6b"/>
    <polygon points="44.25 26.608 3.75 26.608 14.801 14.323 33.197 14.323 44.25 26.608" fill="#f1bb6b"/>
    <path d="M4.5,33.673a.735.735,0,0,1-.532-.219.75.75,0,0,1,0-1.057.78.78,0,0,1,1.065,0,.752.752,0,0,1,0,1.057A.742.742,0,0,1,4.5,33.673Z" fill="#525c6b"/>
    <path d="M8.084,32.923a.752.752,0,0,1,.75-.75h0a.752.752,0,0,1,.75.75h0a.748.748,0,0,1-.75.75h0A.747.747,0,0,1,8.084,32.923Z" fill="#525c6b"/>
    <path d="M13.169,33.673a.752.752,0,0,1-.533-.219A.75.75,0,0,1,13.7,32.4a.748.748,0,0,1-.532,1.276Z" fill="#525c6b"/>
  </g>
</svg>
