<?xml version="1.0" encoding="utf-8"?>
<!-- Generator: Adobe Illustrator 23.0.2, SVG Export Plug-In . SVG Version: 6.00 Build 0)  -->
<svg version="1.1" id="Layer_1" xmlns="http://www.w3.org/2000/svg" xmlns:xlink="http://www.w3.org/1999/xlink" x="0px" y="0px"
	 viewBox="0 0 2048 2048" style="enable-background:new 0 0 2048 2048;" xml:space="preserve">
<style type="text/css">
	.st0{fill:#60B7FF;}
	.st1{fill:#FFD15C;}
	.st2{fill:#C4E2FF;}
	.st3{fill:#E6BD52;}
</style>
<g>
	<path class="st0" d="M1025.59,1792h-3.86c-67.14,0-121.56-54.42-121.56-121.56v-38.71h246.98v38.71
		C1147.15,1737.58,1092.72,1792,1025.59,1792z"/>
	<path class="st1" d="M1462.83,949.48c0,112.82-42.54,215.71-112.47,293.49c-28.37,31.55-48.26,69.4-57.93,110.03
		c-7.95,33.41-38.12,56.8-72.46,56.8H827.35c-34.35,0-64.52-23.39-72.46-56.8c-9.66-40.62-29.56-78.48-57.93-110.03
		c-69.92-77.78-112.48-180.66-112.48-293.49c0-242.56,196.63-439.17,439.17-439.17C1266.2,510.3,1462.83,706.92,1462.83,949.48z"/>
	<path class="st2" d="M1149.51,1660.09H897.8c-44.18,0-80-35.82-80-80v-170.3h411.71v170.3
		C1229.51,1624.27,1193.7,1660.09,1149.51,1660.09z"/>
	<g>
		<g>
			<g>
				<path class="st0" d="M1227.67,1594.47H819.65c-10.1,0-18.29-8.19-18.29-18.29c0-10.1,8.19-18.29,18.29-18.29h408.02
					c10.1,0,18.29,8.19,18.29,18.29C1245.95,1586.28,1237.77,1594.47,1227.67,1594.47z"/>
			</g>
		</g>
		<g>
			<g>
				<path class="st0" d="M1227.67,1511.98H819.65c-10.1,0-18.29-8.19-18.29-18.29s8.19-18.29,18.29-18.29h408.02
					c10.1,0,18.29,8.19,18.29,18.29S1237.77,1511.98,1227.67,1511.98z"/>
			</g>
		</g>
	</g>
	<g>
		<g>
			<path class="st3" d="M1048.38,1045.42v364.36h-48.76v-364.36c0-13.47,10.92-24.38,24.38-24.38S1048.38,1031.95,1048.38,1045.42z"
				/>
		</g>
	</g>
	<g>
		<g>
			<g>
				<path class="st1" d="M1024,432.94c-13.47,0-24.38-10.92-24.38-24.38V280.38c0-13.47,10.92-24.38,24.38-24.38
					c13.47,0,24.38,10.92,24.38,24.38v128.18C1048.38,422.03,1037.47,432.94,1024,432.94z"/>
			</g>
			<g>
				<path class="st1" d="M753.4,505.46c-8.43,0-16.62-4.37-21.14-12.19l-64.09-111.01c-6.73-11.66-2.74-26.57,8.92-33.31
					c11.66-6.73,26.57-2.74,33.31,8.92l64.09,111.01c6.73,11.66,2.74,26.57-8.92,33.31C761.72,504.41,757.53,505.46,753.4,505.46z"
					/>
			</g>
			<g>
				<path class="st1" d="M555.24,703.58c-4.14,0-8.33-1.05-12.17-3.27l-111.01-64.09c-11.66-6.73-15.66-21.64-8.92-33.31
					c6.73-11.66,21.64-15.66,33.31-8.92l111.01,64.09c11.66,6.73,15.66,21.64,8.92,33.31C571.86,699.2,563.66,703.58,555.24,703.58z
					"/>
			</g>
			<g>
				<path class="st1" d="M482.75,974.2H354.56c-13.47,0-24.38-10.92-24.38-24.38s10.92-24.38,24.38-24.38h128.18
					c13.47,0,24.38,10.92,24.38,24.38S496.21,974.2,482.75,974.2z"/>
			</g>
			<g>
				<path class="st1" d="M444.27,1308.92c-8.43,0-16.62-4.37-21.14-12.19c-6.73-11.66-2.74-26.57,8.92-33.3l111.01-64.09
					c11.66-6.74,26.57-2.74,33.31,8.92c6.73,11.66,2.74,26.57-8.92,33.3l-111.01,64.09C452.6,1307.87,448.41,1308.92,444.27,1308.92
					z"/>
			</g>
			<g>
				<path class="st1" d="M1603.73,1308.92c-4.14,0-8.33-1.05-12.17-3.27l-111.01-64.09c-11.66-6.73-15.66-21.64-8.92-33.3
					c6.73-11.66,21.64-15.66,33.3-8.92l111.01,64.09c11.66,6.73,15.66,21.64,8.92,33.3
					C1620.35,1304.55,1612.15,1308.92,1603.73,1308.92z"/>
			</g>
			<g>
				<path class="st1" d="M1693.44,974.2h-128.18c-13.47,0-24.38-10.92-24.38-24.38s10.92-24.38,24.38-24.38h128.18
					c13.47,0,24.38,10.92,24.38,24.38S1706.9,974.2,1693.44,974.2z"/>
			</g>
			<g>
				<path class="st1" d="M1492.76,703.58c-8.43,0-16.62-4.37-21.14-12.19c-6.73-11.66-2.74-26.57,8.92-33.31l111.01-64.09
					c11.66-6.73,26.57-2.74,33.3,8.92c6.73,11.66,2.74,26.57-8.92,33.31l-111.01,64.09C1501.09,702.52,1496.9,703.58,1492.76,703.58
					z"/>
			</g>
			<g>
				<path class="st1" d="M1294.6,505.46c-4.14,0-8.33-1.05-12.17-3.27c-11.66-6.73-15.66-21.64-8.92-33.31l64.09-111.01
					c6.73-11.66,21.64-15.66,33.3-8.92c11.66,6.73,15.66,21.64,8.92,33.31l-64.09,111.01
					C1311.23,501.09,1303.03,505.46,1294.6,505.46z"/>
			</g>
		</g>
	</g>
	<g>
		<g>
			<path class="st3" d="M1024,1069.81c-6.63,0-12.96-2.7-17.56-7.47c-12.99-13.49-27.53-26.08-43.21-37.43
				c-19.31-13.99-40.5-26.22-63.01-36.34c-12.28-5.52-17.76-19.96-12.23-32.24c5.52-12.28,19.96-17.75,32.24-12.23
				c25.53,11.49,49.62,25.39,71.6,41.32c11.26,8.15,22.02,16.87,32.17,26.07c10.15-9.2,20.92-17.93,32.18-26.08
				c21.97-15.92,46.06-29.82,71.59-41.31c12.28-5.53,26.71-0.05,32.24,12.23c5.52,12.28,0.05,26.71-12.23,32.24
				c-22.51,10.13-43.7,22.35-63,36.33c-15.69,11.36-30.23,23.95-43.22,37.44C1036.96,1067.11,1030.63,1069.81,1024,1069.81z"/>
		</g>
	</g>
</g>
</svg>
