<?xml version="1.0" encoding="UTF-8"?>
<!DOCTYPE svg PUBLIC "-//W3C//DTD SVG 1.1//EN" "http://www.w3.org/Graphics/SVG/1.1/DTD/svg11.dtd">
<!-- Creator: CorelDRAW -->
<svg xmlns="http://www.w3.org/2000/svg" xml:space="preserve" width="2048px" height="2048px" style="shape-rendering:geometricPrecision; text-rendering:geometricPrecision; image-rendering:optimizeQuality; fill-rule:evenodd; clip-rule:evenodd"
viewBox="0 0 2048 2048"
 xmlns:xlink="http://www.w3.org/1999/xlink">
 <defs>
  <style type="text/css">
   <![CDATA[
    .fil5 {fill:none}
    .fil2 {fill:#5F5F5F;fill-rule:nonzero}
    .fil1 {fill:#6A6A6A;fill-rule:nonzero}
    .fil4 {fill:#757575;fill-rule:nonzero}
    .fil0 {fill:#8B8C8C;fill-rule:nonzero}
    .fil3 {fill:#BEBEBE;fill-rule:nonzero}
   ]]>
  </style>
 </defs>
 <g id="Layer_x0020_1">
  <metadata id="CorelCorpID_0Corel-Layer"/>
  <g id="_424887392">
   <path id="_424888472" class="fil0" d="M1542.35 1165.86l123.182 395.205 1.77284 11.2217c0,69.0378 -80.2512,126.967 -209.999,164.81 -116.312,33.9225 -276.007,54.9059 -451.515,54.9059 -175.507,0 -335.203,-20.9835 -451.515,-54.9059 -129.747,-37.8425 -209.998,-95.7721 -209.998,-164.81l1.77284 -11.2217 123.181 -395.205c4.11496,-61.252 69.0296,-112.834 171.921,-147.13 94.1257,-31.3772 223.11,-50.7839 364.637,-50.7839 141.527,0 270.513,19.4067 364.638,50.7839 102.892,34.2957 167.806,85.878 171.92,147.13z"/>
   <path id="_424888448" class="fil1" d="M1346.8 1090.19c-86.4603,-28.8213 -206.965,-46.6477 -341.012,-46.6477 -134.046,0 -254.55,17.8264 -341.01,46.6477 -74.2371,24.7453 -120.156,53.9941 -120.156,81.8741 0,27.8811 45.9189,57.1288 120.156,81.8753 86.4603,28.8201 206.965,46.6465 341.01,46.6465 134.047,0 254.551,-17.8264 341.012,-46.6465 74.2382,-24.7465 120.156,-53.9941 120.156,-81.8753 0,-27.8799 -45.9178,-57.1288 -120.156,-81.8741z"/>
   <path id="_424887848" class="fil2" d="M794.227 1421.55c-17.7614,0 -35.1154,6.33898 -48.1146,18.5551 -11.713,11.0067 -18.7429,25.7835 -18.7429,41.9906 0,7.42678 1.64055,14.6906 4.52717,21.515 0.603544,1.42795 1.26378,2.82992 1.97835,4.20591l9.04253 17.4177 -9.04253 17.4201c-0.714567,1.3748 -1.3748,2.77795 -1.97835,4.20591 -2.88662,6.8256 -4.52717,14.0882 -4.52717,21.5162 0,16.2047 7.02993,30.9839 18.7429,41.9894 12.9992,12.2162 30.3532,18.5551 48.1146,18.5551 17.4626,0 34.474,-6.19961 47.4012,-18.026 6.24213,-5.71182 11.3173,-12.6284 14.6941,-20.3953l9.88229 -22.728 279.182 0 9.86221 22.7858c3.36378,7.77166 8.42599,14.6929 14.6681,20.4047 12.9555,11.8512 29.954,17.9587 47.4414,17.9587 17.1059,0 33.0248,-7.73741 45.3343,-19.304 10.1102,-9.49961 21.5221,-26.8335 21.5221,-41.2406 0,-6.96615 -0.277559,-18.7004 -3.75118,-25.0902l-9.81024 -18.0496 9.81024 -18.0496c3.47362,-6.39331 3.75118,-18.1228 3.75118,-25.0914 0,-14.1437 -11.9162,-31.4717 -21.8032,-40.7634 -12.0484,-11.3221 -28.2236,-19.7823 -45.0532,-19.7823 -15.6803,0 -30.7748,4.31457 -43.2969,13.9217 -6.23386,4.78111 -11.4673,10.6854 -15.4063,17.4874l-10.9217 18.8504 -283.83 0 -11.0008 -18.4122c-4.04292,-6.76654 -9.41221,-12.6803 -15.6638,-17.4744 -12.3413,-9.46772 -27.4866,-14.3728 -43.0122,-14.3728z"/>
  </g>
  <g id="_424888016">
   <path id="_424887632" class="fil3" d="M1606.76 409.576l95.5867 306.67 1.3748 8.70827c0,53.5713 -62.2737,98.5241 -162.953,127.889 -90.2552,26.3232 -214.175,42.6059 -350.365,42.6059 -136.189,0 -260.11,-16.2827 -350.365,-42.6059 -100.681,-29.3646 -162.954,-74.3174 -162.954,-127.889l1.37717 -8.70827 95.5855 -306.67c3.19252,-47.53 53.5642,-87.5564 133.406,-114.169 73.0394,-24.3473 173.13,-39.4075 282.951,-39.4075 109.821,0 209.91,15.0602 282.95,39.4075 79.8426,26.6126 130.214,66.639 133.407,114.169z"/>
   <path id="_424887896" class="fil4" d="M1455.02 350.863c-67.0914,-22.3642 -160.601,-36.1973 -264.617,-36.1973 -104.017,0 -197.525,13.8331 -264.617,36.1973 -57.6059,19.2024 -93.2387,41.8985 -93.2387,63.5327 0,21.6354 35.6327,44.3315 93.2387,63.5327 67.0914,22.3642 160.599,36.1973 264.617,36.1973 104.016,0 197.525,-13.8331 264.617,-36.1973 57.6071,-19.2012 93.2375,-41.8973 93.2375,-63.5327 0,-21.6343 -35.6303,-44.3303 -93.2375,-63.5327z"/>
   <path id="_424887464" class="fil4" d="M1026.23 607.991c-13.7835,0 -27.2492,4.9193 -37.3359,14.3976 -9.08977,8.54174 -14.5441,20.0079 -14.5441,32.5831 0,5.76378 1.27205,11.4 3.5126,16.6961 0.468898,1.10787 0.980316,2.19567 1.53543,3.26339l7.01693 13.5165 -7.01693 13.5165c-0.555119,1.06772 -1.06654,2.15669 -1.53543,3.26457 -2.24055,5.29607 -3.5126,10.9323 -3.5126,16.6949 0,12.5752 5.45433,24.0437 14.5441,32.5831 10.0866,9.47953 23.5524,14.3988 37.3359,14.3988 13.5496,0 26.7508,-4.81063 36.7819,-13.9878 4.8437,-4.43268 8.7815,-9.79961 11.4024,-15.8268l7.6689 -17.6362 216.638 0 7.65355 17.6811c2.61024,6.03071 6.53741,11.4012 11.3823,15.8339 10.0524,9.19607 23.2429,13.9358 36.8126,13.9358 13.2744,0 25.6264,-6.00355 35.178,-14.9788 7.84607,-7.37245 16.702,-20.8229 16.702,-32.0032 0,-5.40473 -0.216142,-14.511 -2.91142,-19.4681l-7.61221 -14.0067 7.61103 -14.0055c2.69646,-4.96181 2.9126,-14.0634 2.9126,-19.4717 0,-10.9736 -9.24686,-24.4205 -16.9205,-31.6311 -9.34843,-8.78505 -21.9,-15.3496 -34.9595,-15.3496 -12.1665,0 -23.8807,3.34725 -33.5977,10.8024 -4.83662,3.70985 -8.89725,8.29134 -11.9539,13.5697l-8.4756 14.628 -220.245 0 -8.53583 -14.2878c-3.13819,-5.25119 -7.30512,-9.83977 -12.1547,-13.5602 -9.57757,-7.34646 -21.3295,-11.152 -33.3768,-11.152z"/>
  </g>
 </g>
 <rect class="fil5" width="2048" height="2048"/>
</svg>
