<svg xmlns="http://www.w3.org/2000/svg" width="48" height="48" viewBox="0 0 48 48">
  <g>
    <path d="M0,.053V48H33.85V35.783H48V0ZM45.85,21.416H42.38v2.15h3.47V33.632h-12V31.254H31.7v14.6H11.344V43.477H9.2V45.85H2.151V35.783H9.2V38.12h2.149V31.239H9.2v2.394H2.151V23.567H9.2v2.405h2.149V23.567h4.333v-2.15H2.15V2.2H25.193V21.416H20.9v2.15H31.7v2.39H33.85v-2.39h3.4v-2.15H27.342V2.151H45.849V21.416Z" fill="#7a8e9b"/>
    <path d="M33.85,48H0V.053L48,0V35.783H33.85ZM2.15,45.851H31.7V33.633H45.85V2.152L2.15,2.2Z" fill="#525c6b"/>
  </g>
</svg>
