<?xml version="1.0" encoding="UTF-8"?>
<!DOCTYPE svg PUBLIC "-//W3C//DTD SVG 1.1//EN" "http://www.w3.org/Graphics/SVG/1.1/DTD/svg11.dtd">
<!-- Creator: CorelDRAW -->
<svg xmlns="http://www.w3.org/2000/svg" xml:space="preserve" width="6.82666in" height="6.82666in" style="shape-rendering:geometricPrecision; text-rendering:geometricPrecision; image-rendering:optimizeQuality; fill-rule:evenodd; clip-rule:evenodd"
viewBox="0 0 6.82666 6.82666"
 xmlns:xlink="http://www.w3.org/1999/xlink">
 <defs>
  <style type="text/css">
   <![CDATA[
    .str0 {stroke:#202020;stroke-width:0.00333465;stroke-linecap:round;stroke-linejoin:round}
    .fil6 {fill:none}
    .fil5 {fill:#2D2D2D}
    .fil2 {fill:#909090}
    .fil1 {fill:#A4A4A5}
    .fil4 {fill:#B1B1B1}
    .fil3 {fill:#BFBFBF}
    .fil0 {fill:#2D2D2D;fill-rule:nonzero}
   ]]>
  </style>
 </defs>
 <g id="Layer_x0020_1">
  <metadata id="CorelCorpID_0Corel-Layer"/>
  <g id="_340437664">
   <polygon id="_340438648" class="fil0" points="1.0202,4.32171 1.35889,4.32171 1.35889,4.51552 1.0202,4.51552 "/>
   <polygon id="_340439152" class="fil0" points="5.4674,4.32171 5.80609,4.32171 5.80609,4.51552 5.4674,4.51552 "/>
   <path id="_340437832" class="fil1" d="M1.27448 2.31114l2.13867 0 2.13867 0c0.0755315,0 0.137323,0.064748 0.137323,0.143866l0 1.32151c-1.33004,0 -3.05052,0.00264961 -4.55198,0.00264961l0 -1.32416c0,-0.079126 0.0617913,-0.143866 0.137327,-0.143866z"/>
   <path id="_340438264" class="fil2" d="M3.38887 2.31114l0.0242756 0 0.0242795 0c0.00811024,0.146394 0.0127638,0.31637 0.0127638,0.497705 0,0.320476 -0.0145118,0.605516 -0.0370433,0.787476 -0.0225276,-0.181961 -0.0370433,-0.467 -0.0370433,-0.787476 0,-0.181335 0.00465354,-0.351311 0.0127677,-0.497705z"/>
   <path id="_340438240" class="fil3" d="M5.3658 3.00758c-0.00377953,0 -0.00678346,0.00300394 -0.00678346,0.00677953l0 0.75189 -3.89174 0 0 -0.75189c0,-0.00377559 -0.00300394,-0.00677953 -0.00677953,-0.00677953l-0.541902 0c-0.00377559,0 -0.00677953,0.00300394 -0.00677953,0.00677953l0 1.30057c0,0.00377559 0.00300394,0.00677953 0.00677953,0.00677953l4.9891 0c0.00377559,0 0.00678346,-0.00300394 0.00678346,-0.00677953l0 -1.30057c0,-0.00377559 -0.00300787,-0.00677953 -0.00678346,-0.00677953l-0.541898 0z"/>
   <path id="_340437736" class="fil4" d="M3.39782 3.76501l0.0153189 0 0.0153189 0c0.00511811,0.0579016 0.00805512,0.125138 0.00805512,0.196862 0,0.126768 -0.00915748,0.239512 -0.023374,0.311488 -0.0142165,-0.0719764 -0.023374,-0.18472 -0.023374,-0.311488 0,-0.0717244 0.00293701,-0.138961 0.00805512,-0.196862z"/>
   <path id="_340437400" class="fil4" d="M1.46491 3.76501l0.0153189 0 0.0153189 0c0.00169291,0.0442323 0.000645669,0.0955945 -0.00360236,0.150386 -0.00750394,0.0968386 -0.0233386,0.182969 -0.041815,0.237953 -0.00995276,-0.0549843 -0.012437,-0.141114 -0.00492913,-0.237953 0.00424409,-0.0547913 0.0111614,-0.106154 0.0197087,-0.150386z"/>
   <path id="_340437352" class="fil4" d="M5.35589 3.76501l-0.0153189 0 -0.0153189 0c-0.00168898,0.0442323 -0.000645669,0.0955945 0.00360236,0.150386 0.00750394,0.0968386 0.0233386,0.182969 0.041815,0.237953 0.00995669,-0.0549843 0.012437,-0.141114 0.00493307,-0.237953 -0.00424803,-0.0547913 -0.0111654,-0.106154 -0.0197126,-0.150386z"/>
   <rect id="_340437280" class="fil5 str0" x="0.853331" y="3.00762" width="0.613877" height="0.100547"/>
   <rect id="_340437040" class="fil5 str0" x="5.35945" y="3.00762" width="0.613877" height="0.100547"/>
  </g>
  <rect class="fil6" width="6.82666" height="6.82666"/>
 </g>
</svg>
