<?xml version="1.0" encoding="iso-8859-1"?>
<!-- Generator: Adobe Illustrator 19.0.0, SVG Export Plug-In . SVG Version: 6.00 Build 0)  -->
<svg version="1.1" id="Layer_1" xmlns="http://www.w3.org/2000/svg" xmlns:xlink="http://www.w3.org/1999/xlink" x="0px" y="0px"
	 viewBox="0 0 512 512" style="enable-background:new 0 0 512 512;" xml:space="preserve">
<rect x="218.988" y="373.205" style="fill:#58575D;" width="74.024" height="61.687"/>
<g>
	<path style="fill:#797781;" d="M342.361,444.145H169.639c-5.11,0-9.253-4.143-9.253-9.253s4.143-9.253,9.253-9.253h172.723
		c5.11,0,9.253,4.143,9.253,9.253S347.472,444.145,342.361,444.145z"/>
	<rect x="9.253" y="77.108" style="fill:#797781;" width="493.494" height="308.434"/>
</g>
<rect x="441.06" y="77.108" style="fill:#58575D;" width="61.687" height="308.434"/>
<rect x="9.253" y="114.12" style="fill:#88888F;" width="493.494" height="234.41"/>
<rect x="441.06" y="114.12" style="fill:#797781;" width="61.687" height="234.41"/>
<path style="fill:#58575D;" d="M342.361,425.639h-52.434c5.11,0,9.253,4.143,9.253,9.253s-4.143,9.253-9.253,9.253h52.434
	c5.11,0,9.253-4.143,9.253-9.253S347.472,425.639,342.361,425.639z"/>
<path style="fill:#2E2D31;" d="M502.747,67.855H9.253C4.143,67.855,0,71.998,0,77.108v308.434c0,5.11,4.143,9.253,9.253,9.253
	h200.482v30.843h-40.096c-5.11,0-9.253,4.143-9.253,9.253s4.143,9.253,9.253,9.253h172.723c5.11,0,9.253-4.143,9.253-9.253
	s-4.143-9.253-9.253-9.253h-40.096v-30.843h200.482c5.11,0,9.253-4.143,9.253-9.253V77.108
	C512,71.998,507.857,67.855,502.747,67.855z M283.759,425.639h-55.518v-30.843h55.518V425.639z M18.506,376.289V123.373h434.89
	c5.11,0,9.253-4.143,9.253-9.253s-4.143-9.253-9.253-9.253H18.506V86.361h474.988v252.916H58.602c-5.11,0-9.253,4.143-9.253,9.253
	c0,5.11,4.143,9.253,9.253,9.253h434.892v18.506H18.506z"/>
<g>
</g>
<g>
</g>
<g>
</g>
<g>
</g>
<g>
</g>
<g>
</g>
<g>
</g>
<g>
</g>
<g>
</g>
<g>
</g>
<g>
</g>
<g>
</g>
<g>
</g>
<g>
</g>
<g>
</g>
</svg>
